<?xml version="1.0" encoding="utf-8"?>
<svg version="1.1" xmlns:cc="http://creativecommons.org/ns#" xmlns:dc="http://purl.org/dc/elements/1.1/" xmlns:rdf="http://www.w3.org/1999/02/22-rdf-syntax-ns#" xmlns:svg="http://www.w3.org/2000/svg" xmlns="http://www.w3.org/2000/svg" x="0px" y="0px" viewBox="0 0 100 100" style="enable-background:new 0 0 100 100;" xml:space="preserve">
	<linearGradient id="g4" gradientUnits="userSpaceOnUse" x1="7" y1="41.2379" x2="93.6981" y2="41.2379"><stop offset="0" style="stop-color:#8CDF64"/><stop offset="9.191650e-002" style="stop-color:#8CDF64"/><stop offset="0.3026" style="stop-color:#8CDF64"/><stop offset="0.8624" style="stop-color:#50994C"/><stop offset="1" style="stop-color:#50994C"/></linearGradient>
	<linearGradient id="g3" gradientUnits="userSpaceOnUse" x1="7" y1="50" x2="93.6981" y2="50"><stop offset="0" style="stop-color:#8CDF64"/><stop offset="9.191650e-002" style="stop-color:#8CDF64"/><stop offset="0.3026" style="stop-color:#8CDF64"/><stop offset="0.8624" style="stop-color:#50994C"/><stop offset="1" style="stop-color:#50994C"/></linearGradient>
	<linearGradient id="g2" gradientUnits="userSpaceOnUse" x1="43.9722" y1="55.2113" x2="143.297" y2="-18.2852"><stop offset="0" style="stop-color:#50994C"/><stop offset="0.1376" style="stop-color:#50994C"/><stop offset="0.6974" style="stop-color:#8CDF64"/><stop offset="0.9081" style="stop-color:#8CDF64"/><stop offset="1" style="stop-color:#8CDF64"/></linearGradient>
	<linearGradient id="g1" gradientUnits="userSpaceOnUse" x1="65.9107" y1="17.4702" x2="30.5051" y2="89.7419"><stop offset="0" style="stop-color:#50994C"/><stop offset="0.5288" style="stop-color:#50994C"/><stop offset="1" style="stop-color:#6DD049"/></linearGradient>	
	<path fill="url(#g1)" d="M91.5,23.3L52.4,0.6C51.6,0.2,50.8,0,50,0s-1.6,0.2-2.4,0.6L8.4,23.3C6.9,24.1,6,25.7,6,27.4v45.3 c0,1.7,0.9,3.3,2.4,4.1l39.2,22.6c1.5,0.8,3.3,0.8,4.7,0l39.2-22.6c1.5-0.8,2.4-2.4,2.4-4.1V27.4C93.9,25.7,93,24.1,91.5,23.3z M39.2,20.1c0-0.9,0.5-1.7,1.2-2.1l8.4-4.9c0.7-0.4,1.7-0.4,2.4,0l8.4,4.9c0.7,0.4,1.2,1.2,1.2,2.1v9.7c0,0.9-0.5,1.7-1.2,2.1 l-8.4,4.9c-0.7,0.4-1.7,0.4-2.4,0l-8.4-4.9c-0.7-0.4-1.2-1.2-1.2-2.1V20.1z M31.9,69.9c0.5,0.5,0.5,1.4,0,1.9l-1.7,1.7 c-0.5,0.5-1.4,0.5-2,0c-6.1-6.7-9.4-15.7-9-24.8c0.1-2.7,0.6-5.3,1.3-7.9l-5.6-3.2c-0.9-0.5-0.9-1.9,0-2.5l15.3-8.7 c0.9-0.5,2.1,0.1,2.1,1.2l-0.1,17.6c0,1.1-1.2,1.8-2.1,1.2l-5-2.9c-0.4,1.8-0.7,3.6-0.7,5.4C24,56.6,26.8,64.2,31.9,69.9z M50,86.5 c-6.4,0-11.5-5.1-11.5-11.5S43.6,63.5,50,63.5S61.5,68.6,61.5,75S56.4,86.5,50,86.5z M85.1,65l-15.3,8.7c-0.9,0.5-2.1-0.1-2.1-1.2 l0.1-17.6c0-1.1,1.2-1.8,2.1-1.2l5,2.9c0.4-1.8,0.7-3.6,0.7-5.4c0.3-7.7-2.4-15.3-7.6-21c-0.5-0.5-0.5-1.4,0-1.9l1.7-1.7 c0.5-0.5,1.4-0.5,2,0c6.1,6.7,9.4,15.7,9,24.8c-0.1,2.7-0.6,5.3-1.3,7.9l5.6,3.2C86,63.1,86,64.4,85.1,65z"/>
	<path fill="url(#g2)" d="M67.8,54.9c0-1.1,1.2-1.8,2.1-1.2l4.9,2.8l0.3-0.5c0.3-1.6,0.6-3.2,0.6-4.8c0.3-7.7-2.4-15.3-7.6-21 c-0.5-0.5-0.5-1.4,0-1.9l1.7-1.7c0.5-0.5,1.4-0.5,2,0c4.9,5.4,8,12.2,8.8,19.3L92.5,24c-0.3-0.3-0.7-0.6-1.1-0.9L65.9,8.4L52.3,0.6 c-0.4-0.2-0.8-0.4-1.2-0.5L40.7,17.9l8.1-4.7c0.7-0.4,1.7-0.4,2.4,0l8.4,4.9c0.7,0.4,1.2,1.2,1.2,2.1v9.7c0,0.9-0.5,1.7-1.2,2.1 l-8.4,4.9c-0.7,0.4-1.7,0.4-2.4,0l-8.4-4.9c-0.7-0.4-1.2-1.2-1.2-2.1v-9.4l-6.9,11.8l0,12.9c0,1.1-1.2,1.8-2.1,1.2l-4.5-2.6 l-0.9,1.5c-0.2,1.2-0.3,2.4-0.4,3.7c-0.3,7.7,2.4,15.3,7.6,21c0.5,0.5,0.5,1.4,0,1.9l-1.7,1.7c-0.5,0.5-1.4,0.5-2,0 c-4.9-5.3-7.9-12.1-8.8-19.2L7,75.5c0.4,0.5,0.8,0.9,1.4,1.2L42,96.1l5.6,3.2c0.8,0.5,1.8,0.7,2.7,0.6c0.3,0,0.6-0.1,0.9-0.2 l16.5-30.3L67.8,54.9z M50,86.5c-6.4,0-11.5-5.1-11.5-11.5S43.6,63.5,50,63.5S61.5,68.6,61.5,75S56.4,86.5,50,86.5z"/>
	<path fill="url(#g3)" d="M80.8,51.2c0,0,0,0.1,0,0.1c-0.1,2.7-0.6,5.3-1.3,7.9l5.6,3.2c0.9,0.5,0.9,1.9,0,2.5l-15.3,8.7 c-0.9,0.5-2.1-0.1-2.1-1.2l0.1-17.6c0-1.1,1.2-1.8,2.1-1.2l5,2.9c0.4-1.8,0.7-3.6,0.7-5.4c0.2-4.3-0.6-8.5-2.2-12.3l-4.3-7.3 c-0.4-0.5-0.8-0.9-1.2-1.4c-0.3-0.3-0.4-0.8-0.3-1.2L50.9,0.2C50.6,0,50.2,0,49.9,0c-0.1,0-0.2,0-0.4,0c-0.7,0.1-1.3,0.3-1.9,0.6 L8.5,23.2L15,35l15.2-8.7c0.9-0.5,2.1,0.1,2.1,1.2l-0.1,17.6c0,1.1-1.2,1.8-2.1,1.2l-5-2.9c-0.4,1.8-0.7,3.6-0.7,5.4 c0,1.1,0,2.2,0.1,3.2l15,27.3c-0.6-1.3-0.9-2.8-0.9-4.4c0-6.4,5.1-11.5,11.5-11.5S61.5,68.6,61.5,75S56.4,86.5,50,86.5 c-3.9,0-7.3-1.9-9.4-4.9L50.7,100c0.6-0.1,1.2-0.3,1.7-0.6l39.2-22.6c1.2-0.7,2-1.9,2.3-3.2L80.8,51.2z M60.8,29.9 c0,0.9-0.5,1.7-1.2,2.1l-8.4,4.9c-0.7,0.4-1.7,0.4-2.4,0l-8.4-4.9c-0.7-0.4-1.2-1.2-1.2-2.1v-9.7c0-0.9,0.5-1.7,1.2-2.1l8.4-4.9 c0.7-0.4,1.7-0.4,2.4,0l8.4,4.9c0.7,0.4,1.2,1.2,1.2,2.1V29.9z"/>
	<path fill="url(#g4)" d="M19.8,43.7c0.2-1,0.4-2,0.7-3l-3.4-2L19.8,43.7z"/>
</svg>
