<?xml version="1.0" encoding="utf-8"?><svg version="1.1" xmlns="http://www.w3.org/2000/svg" x="0px" y="0px" width="16px" height="16px" viewBox="0 0 16 16" enable-background="new 0 0 16 16" xml:space="preserve">
	<path d="M10.292,4.56V0.347c0.134,0.08,0.24,0.16,0.32,0.24l3.652,3.652c0.08,0.08,0.16,0.188,0.24,0.32H10.292L10.292,4.56z M9.146,4.854c0,0.24,0.08,0.453,0.24,0.613s0.373,0.238,0.613,0.238h4.854v9.439c0,0.24-0.08,0.453-0.24,0.613 c-0.159,0.16-0.373,0.24-0.612,0.24H2c-0.239,0-0.453-0.08-0.612-0.24c-0.16-0.16-0.24-0.373-0.24-0.613V0.853 c0-0.24,0.08-0.453,0.24-0.613c0.159-0.16,0.371-0.238,0.611-0.238h7.146V4.854L9.146,4.854z"/>
</svg>